<?xml version="1.0" encoding="utf-8"?>
<?xml-stylesheet type="text/xsl" href="rss1.xsl"?>
<rss version="2.0" xmlns:atom="http://www.w3.org/2005/Atom" xmlns:content="http://purl.org/rss/1.0/modules/content/" xmlns:dc="http://purl.org/dc/elements/1.1/" xmlns:media="http://search.yahoo.com/mrss/">
<channel>
 <title>Getty</title>
 <link>http://www.gettyimg.com/</link>
 <atom:link href="http://www.gettyimg.com/" rel="self" type="application/rss+xml" />

 
                <item>
                <title><![CDATA[【HD Live Performances】UHDTV 4K - Taylor Swift - The 1989 World Tour (2015) Itunes 4K WEB-DL DD5.1 H.264]]></title>
                <link><![CDATA[https://sharemania.us/threads/taylor-swift-the-1989-world-tour-2015-itunes-4k-web-dl-dd5-1-h-264.232615/]]></link>
                <description><![CDATA[<article>
<blockquote class="messageText SelectQuoteContainer ugc baseHtml">
<img src="https://www.themoviedb.org/t/p/original/zwRGig0N8l6v5WxdrmwSBEBToAe.jpg" class="bbCodeImage LbImage" alt="[​IMG]" data-url="https://www.themoviedb.org/t/p/original/zwRGig0N8l6v5WxdrmwSBEBToAe.jpg" style=""> <br>
<img src="https://i.postimg.cc/rF42hCqh/Taylor-Swift-The-1989-World-Tour-Itunes-4-K-WEB-DL-DD5-1-H-264-mkv.jpg" class="bbCodeImage LbImage" alt="[​IMG]" data-url="https://i.postimg.cc/rF42hCqh/Taylor-Swift-The-1989-World-Tour-Itunes-4-K-WEB-DL-DD5-1-H-264-mkv.jpg" style=""> <br>
<div class="ToggleTriggerAnchor bbCodeSpoilerContainer">
<button type="button" class="button bbCodeSpoilerButton ToggleTrigger Tooltip JsOnly" data-target="> .SpoilerTarget"><span>Spoiler: <span class="SpoilerTitle">Media Info</span></span></button>
<div class="SpoilerTarget bbCodeSpoilerText">General<br>
Unique ID : 264262691117180046958753941395306490297 (0xC6CF249BB184895D64CF8E80BDACA9B9)<br>
Complete name : Taylor Swift - The 1989 World Tour Itunes 4K WEB-DL DD5.1 H.264.mkv<br>
Format : Matroska<br>
Format version : Version 4<br>
File size : 18.6 GiB<br>
Duration : 2 h 11 min<br>
Overall bit rate : 20.2 Mb/s<br>
Frame rate : 29.970 FPS<br>
Encoded date : 2021-01-07 19:12:17 UTC<br>
Writing application : mkvmerge v52.0.0 ('Secret For The Mad') 64-bit<br>
Writing library : libebml v1.4.1 + libmatroska v1.6.2<br>
Cover : Yes<br>
Attachments : cover.jpg<br>
<br>
Video<br>
ID : 1<br>
Format : AVC<br>
Format/Info : Advanced Video Codec<br>
Format profile : Main@L5.1<br>
Format settings : CABAC / 4 Ref Frames<br>
Format settings, CABAC : Yes<br>
Format settings, Reference frames : 4 frames<br>
Format settings, GOP : M=4, N=29<br>
Codec ID : V_MPEG4/ISO/AVC<br>
Duration : 2 h 11 min<br>
Bit rate : 19.9 Mb/s<br>
Width : 3 840 pixels<br>
Height : 2 160 pixels<br>
Display aspect ratio : 16:9<br>
Frame rate mode : Constant<br>
Frame rate : 29.970 (30000/1001) FPS<br>
Color space : YUV<br>
Chroma subsampling : 4:2:0<br>
Bit depth : 8 bits<br>
Scan type : Progressive<br>
Bits/(Pixel*Frame) : 0.080<br>
Stream size : 18.3 GiB (98%)<br>
Language : English<br>
Default : Yes<br>
Forced : Yes<br>
Color range : Limited<br>
Color primaries : BT.709<br>
Transfer characteristics : BT.709<br>
Matrix coefficients : BT.709<br>
<br>
Audio<br>
ID : 2<br>
Format : AC-3<br>
Format/Info : Audio Coding 3<br>
Commercial name : Dolby Digital<br>
Codec ID : A_AC3<br>
Duration : 2 h 11 min<br>
Bit rate mode : Constant<br>
Bit rate : 384 kb/s<br>
Channel(s) : 6 channels<br>
Channel layout : L R C LFE Ls Rs<br>
Sampling rate : 48.0 kHz<br>
Frame rate : 31.250 FPS (1536 SPF)<br>
Compression mode : Lossy<br>
Stream size : 362 MiB (2%)<br>
Language : English<br>
Service kind : Complete Main<br>
Default : Yes<br>
Forced : Yes<br>
<br>
Text<br>
ID : 3<br>
Format : UTF-8<br>
Codec ID : S_TEXT/UTF8<br>
Codec ID/Info : UTF-8 Plain Text<br>
Duration : 2 h 11 min<br>
Bit rate : 67 b/s<br>
Frame rate : 0.280 FPS<br>
Count of elements : 2214<br>
Stream size : 65.0 KiB (0%)<br>
Language : Spanish<br>
Default : No<br>
Forced : No</div>
</div>
<div class="bbCodeBlock bbCodeVfcHH HiddenContent">
<div class="attribution type">Hidden Content:</div>
<blockquote>You must either reply or click 'Like' to see the hidden information contained here.</blockquote>
</div>
<div class="messageTextEndMarker">&nbsp;</div>
</blockquote>
</article>]]></description>
                <author><![CDATA[szymek04sawicki]]></author>
                </item>

                </channel></rss>